<!DOCTYPE svg PUBLIC "-//W3C//DTD SVG 20010904//EN" "http://www.w3.org/TR/2001/REC-SVG-20010904/DTD/svg10.dtd">
<svg version="1.0" xmlns="http://www.w3.org/2000/svg" width="47px" height="32px" viewBox="0 0 470 320" preserveAspectRatio="xMidYMid meet">
<g id="layer101" fill="#6d6d6d" stroke="none">
 <path d="M114 285 c-34 -45 -43 -111 -19 -151 9 -16 13 -20 8 -9 -4 11 -8 43 -8 72 0 46 4 56 34 87 19 20 30 36 23 36 -6 0 -23 -16 -38 -35z"/>
 <path d="M141 285 c-38 -44 -47 -78 -33 -129 6 -24 7 -45 2 -51 -13 -15 -100 -77 -100 -71 0 3 20 19 45 37 25 18 43 34 41 37 -10 9 -92 -68 -93 -87 -2 -20 4 -21 93 -21 l94 0 0 30 c0 29 2 30 45 30 43 0 45 -1 45 -30 l0 -30 94 0 c89 0 95 1 93 21 -1 19 -83 96 -93 87 -2 -3 14 -18 36 -33 22 -15 38 -30 36 -33 -3 -2 -26 13 -51 33 -37 31 -44 42 -38 59 5 12 8 42 8 68 0 40 -5 52 -35 83 -32 33 -38 35 -96 35 -58 0 -64 -2 -93 -35z m126 -132 c-20 -2 -52 -2 -70 0 -17 2 0 4 38 4 39 0 53 -2 32 -4z"/>
 <path d="M339 288 c42 -43 51 -94 27 -163 -4 -11 0 -7 9 9 24 40 15 106 -19 151 -15 19 -32 35 -38 35 -6 0 4 -14 21 -32z"/>
 <path d="M201 23 c2 -24 2 -25 6 -5 3 15 11 22 28 22 17 0 25 -7 28 -22 4 -20 4 -19 6 5 1 25 -2 27 -34 27 -32 0 -35 -2 -34 -27z"/>
 </g>
<g id="layer102" fill="#a3a3a3" stroke="none">
 <path d="M161 285 c-44 -38 -56 -82 -35 -134 9 -23 15 -43 13 -45 -10 -6 -105 -81 -113 -88 -6 -4 27 -8 72 -8 l82 0 0 33 0 33 55 0 55 0 0 -33 0 -33 80 0 c44 0 80 1 80 3 0 1 -27 23 -60 47 -57 43 -70 62 -51 74 17 11 21 67 7 100 -32 76 -124 101 -185 51z m149 -130 c0 -24 -2 -25 -75 -25 -73 0 -75 1 -75 25 0 24 2 25 75 25 73 0 75 -1 75 -25z"/>
 </g>
<g id="layer103" fill="#f9f9f9" stroke="none">
 <path d="M179 293 c-55 -34 -73 -97 -44 -153 l15 -29 -60 -47 c-33 -26 -60 -49 -60 -50 0 -2 32 -4 70 -4 l70 0 0 38 0 37 65 0 65 0 0 -37 0 -38 70 0 c39 0 70 2 70 4 0 3 -74 60 -118 91 -1 1 4 15 13 31 54 104 -59 218 -156 157z m141 -138 c0 -26 0 -26 -82 -23 -66 2 -83 6 -84 18 -1 27 7 30 87 30 78 0 79 0 79 -25z"/>
 </g>

</svg>